<svg width="51" height="50" viewBox="0 0 51 50" fill="none" xmlns="http://www.w3.org/2000/svg">
  <path d="M25.5 1C12.654 1 1.996 11.202 1.996 24.086C1.996 37.971 12.654 48.173 25.5 48.173C38.346 48.173 49.004 37.971 49.004 24.086C49.004 11.202 38.346 1 25.5 1ZM25.5 44.672C14.426 44.672 5.496 36.092 5.496 24.086C5.496 12.08 14.426 3.5 25.5 3.5C36.574 3.5 45.504 12.08 45.504 24.086C45.504 36.092 36.574 44.672 25.5 44.672Z" fill="#F90"/>
  <path d="M17.5 25C16.2 25 15 24.2 14.5 23L7 19C5.8 18.5 5.8 16.5 7 16L14.5 12.9C15.8 12.4 17.2 13.3 17.7 14.6L20 22.4C20.4 23.7 19.5 25 17.5 25ZM33.5 25C34.8 25 36 24.2 36.5 23L44 19C45.2 18.5 45.2 16.5 44 16L36.5 12.9C35.2 12.4 33.8 13.3 33.3 14.6L31 22.4C30.6 23.7 31.5 25 33.5 25ZM25.5 38C26.9 38 28 36.9 28 35.5C28 34.1 26.9 33 25.5 33C24.1 33 23 34.1 23 35.5C23 36.9 24.1 38 25.5 38Z" fill="black"/>
</svg>
