<svg width="64" height="64" viewBox="0 0 64 64" fill="none" xmlns="http://www.w3.org/2000/svg">
  <path d="M32 1C15.432 1 2 14.432 2 31C2 47.568 15.432 61 32 61C48.568 61 62 47.568 62 31C62 14.432 48.568 1 32 1ZM30 52C19.85 52 13 43.95 13 31C13 18.05 19.85 10 30 10C40.15 10 47 18.05 47 31C47 43.95 40.15 52 30 52ZM30 12C21.82 12 16 20.02 16 31C16 41.98 21.82 50 30 50C38.18 50 44 41.98 44 31C44 20.02 38.18 12 30 12ZM24 22C25.6569 22 27 20.6569 27 19C27 17.3431 25.6569 16 24 16C22.3431 16 21 17.3431 21 19C21 20.6569 22.3431 22 24 22ZM36 22C37.6569 22 39 20.6569 39 19C39 17.3431 37.6569 16 36 16C34.3431 16 33 17.3431 33 19C33 20.6569 34.3431 22 36 22ZM30 34C26.6863 34 24 36.6863 24 40H36C36 36.6863 33.3137 34 30 34Z" fill="black"/>
</svg>
